<svg width="24" height="24" viewBox="0 0 24 24" fill="none" xmlns="http://www.w3.org/2000/svg">
<path fill-rule="evenodd" clip-rule="evenodd" d="M21.5999 12C21.5999 17.3019 17.3018 21.6 11.9999 21.6C6.69797 21.6 2.3999 17.3019 2.3999 12C2.3999 6.69806 6.69797 2.39999 11.9999 2.39999C17.3018 2.39999 21.5999 6.69806 21.5999 12ZM13.1999 7.19999C13.1999 7.86274 12.6626 8.39999 11.9999 8.39999C11.3372 8.39999 10.7999 7.86274 10.7999 7.19999C10.7999 6.53725 11.3372 5.99999 11.9999 5.99999C12.6626 5.99999 13.1999 6.53725 13.1999 7.19999ZM10.7999 10.8C10.1372 10.8 9.5999 11.3373 9.5999 12C9.5999 12.6627 10.1372 13.2 10.7999 13.2V16.8C10.7999 17.4627 11.3372 18 11.9999 18H13.1999C13.8626 18 14.3999 17.4627 14.3999 16.8C14.3999 16.1373 13.8626 15.6 13.1999 15.6V12C13.1999 11.3373 12.6626 10.8 11.9999 10.8H10.7999Z" fill="#FF4D25"/>
</svg>
