<svg width="58" height="54" viewBox="0 0 58 54" fill="none" xmlns="http://www.w3.org/2000/svg">
<rect x="1" y="1" width="56" height="52" rx="26" fill="#FF4D25"/>
<rect x="1" y="1" width="56" height="52" rx="26" stroke="#FF390E" stroke-width="2"/>
<path d="M20.2393 24.674C20.1882 24.1584 19.9688 23.7578 19.581 23.4723C19.1932 23.1868 18.6669 23.044 18.0021 23.044C17.5504 23.044 17.169 23.108 16.858 23.2358C16.5469 23.3594 16.3082 23.532 16.142 23.7536C15.9801 23.9751 15.8991 24.2266 15.8991 24.5078C15.8906 24.7422 15.9396 24.9467 16.0462 25.1214C16.157 25.2962 16.3082 25.4474 16.5 25.5753C16.6918 25.6989 16.9134 25.8075 17.1648 25.9013C17.4162 25.9908 17.6847 26.0675 17.9702 26.1314L19.1463 26.4126C19.7173 26.5405 20.2415 26.7109 20.7188 26.924C21.196 27.1371 21.6094 27.3991 21.9588 27.7102C22.3082 28.0213 22.5788 28.3878 22.7706 28.8097C22.9666 29.2315 23.0668 29.7152 23.071 30.2607C23.0668 31.0618 22.8622 31.7564 22.4574 32.3445C22.0568 32.9283 21.4773 33.3821 20.7188 33.706C19.9645 34.0256 19.0547 34.1854 17.9893 34.1854C16.9325 34.1854 16.0121 34.0234 15.228 33.6996C14.4482 33.3757 13.8388 32.8963 13.3999 32.2614C12.9652 31.6222 12.7372 30.8317 12.7159 29.8899H15.3942C15.424 30.3288 15.5497 30.6953 15.7713 30.9893C15.9972 31.2791 16.2976 31.4986 16.6726 31.6477C17.0518 31.7926 17.4801 31.8651 17.9574 31.8651C18.4261 31.8651 18.8331 31.7969 19.1783 31.6605C19.5277 31.5241 19.7983 31.3345 19.9901 31.0916C20.1818 30.8487 20.2777 30.5696 20.2777 30.2543C20.2777 29.9602 20.1903 29.7131 20.0156 29.5128C19.8452 29.3125 19.5938 29.142 19.2614 29.0014C18.9332 28.8608 18.5305 28.733 18.0533 28.6179L16.6278 28.2599C15.5241 27.9915 14.6527 27.5717 14.0135 27.0007C13.3743 26.4297 13.0568 25.6605 13.0611 24.6932C13.0568 23.9006 13.2678 23.2081 13.6939 22.6158C14.1243 22.0234 14.7145 21.5611 15.4645 21.2287C16.2145 20.8963 17.0668 20.7301 18.0213 20.7301C18.9929 20.7301 19.8409 20.8963 20.5653 21.2287C21.294 21.5611 21.8608 22.0234 22.2656 22.6158C22.6705 23.2081 22.8793 23.8942 22.892 24.674H20.2393ZM24.9327 34V20.9091H27.7005V31.718H33.3127V34H24.9327ZM35.1456 34V20.9091H43.9666V23.1911H37.9134V26.3104H43.5128V28.5923H37.9134V31.718H43.9922V34H35.1456Z" fill="white"/>
<path d="M12 37.5795H45.0341V38.8068H12V37.5795Z" fill="white"/>
</svg>
