<svg width="13" height="24" viewBox="0 0 13 24" fill="none" xmlns="http://www.w3.org/2000/svg">
<path d="M12.125 6.2625C12.125 3.15 9.6125 0.637497 6.5 0.637497C3.3875 0.637497 0.875 3.15 0.875 6.2625C0.875 9.075 2.9375 11.4 5.6375 11.8125V22.5C5.6375 22.95 6.0125 23.3625 6.5 23.3625C6.95 23.3625 7.3625 22.9875 7.3625 22.5V11.8125C10.025 11.4 12.125 9.075 12.125 6.2625ZM6.5 10.2C4.325 10.2 2.5625 8.4375 2.5625 6.2625C2.5625 4.0875 4.325 2.325 6.5 2.325C8.675 2.325 10.4375 4.0875 10.4375 6.2625C10.4375 8.4375 8.675 10.2 6.5 10.2Z" fill="#4F4F4F"/>
<path d="M7.4749 3.1875C6.3124 3.1875 5.3374 4.125 5.3374 5.325C5.3374 6.525 6.2749 7.4625 7.4749 7.4625C8.6749 7.4625 9.6124 6.525 9.6124 5.325C9.6124 4.125 8.6374 3.1875 7.4749 3.1875ZM7.4749 5.7375C7.2499 5.7375 7.0249 5.55 7.0249 5.2875C7.0249 5.025 7.2124 4.8375 7.4749 4.8375C7.7374 4.8375 7.9249 5.025 7.9249 5.2875C7.9249 5.55 7.6999 5.7375 7.4749 5.7375Z" fill="#4F4F4F"/>
</svg>
