<svg width="64" height="50" viewBox="0 0 64 50" fill="none" xmlns="http://www.w3.org/2000/svg">
<rect x="1" y="1" width="62" height="48" rx="24" fill="#FF4D25"/>
<rect x="1" y="1" width="62" height="48" rx="24" stroke="#FF390E" stroke-width="2"/>
<path d="M24.4805 21.7715C24.4805 22.0996 24.3633 22.375 24.1289 22.5977C23.9062 22.832 23.6309 22.9492 23.3027 22.9492H16.2715C16.0488 22.9609 15.8613 23.0137 15.709 23.1074C15.5684 23.1895 15.4629 23.2891 15.3926 23.4062C15.3223 23.5117 15.2871 23.623 15.2871 23.7402C15.2871 23.8574 15.3223 23.9746 15.3926 24.0918C15.4629 24.1973 15.5684 24.2969 15.709 24.3906C15.8613 24.4727 16.0488 24.5195 16.2715 24.5312H21.2637C22.084 24.5547 22.7578 24.748 23.2852 25.1113C23.8242 25.4629 24.2051 25.873 24.4277 26.3418C24.6621 26.7988 24.7793 27.2676 24.7793 27.748C24.7793 28.2168 24.6621 28.6855 24.4277 29.1543C24.1934 29.6113 23.8125 30.0215 23.2852 30.3848C22.7578 30.7363 22.084 30.9121 21.2637 30.9121H21.1582C21.0879 30.9238 21.0176 30.9297 20.9473 30.9297H14.3027C13.9746 30.9297 13.6934 30.8184 13.459 30.5957C13.2363 30.3613 13.125 30.0801 13.125 29.752C13.125 29.4238 13.2422 29.1484 13.4766 28.9258C13.6992 28.6914 13.9746 28.5742 14.3027 28.5742H21.3691C21.5918 28.5859 21.7734 28.5449 21.9141 28.4512C22.0664 28.3574 22.1777 28.252 22.248 28.1348C22.3184 28.0059 22.3535 27.877 22.3535 27.748C22.3535 27.666 22.3184 27.5547 22.248 27.4141C22.1777 27.2617 22.0664 27.1387 21.9141 27.0449C21.7734 26.9512 21.5918 26.8984 21.3691 26.8867H16.377C15.5566 26.8633 14.877 26.6758 14.3379 26.3242C13.8105 25.9727 13.4297 25.5742 13.1953 25.1289C12.9727 24.6719 12.8613 24.209 12.8613 23.7402C12.8613 23.2832 12.9785 22.832 13.2129 22.3867C13.4473 21.9297 13.8281 21.5254 14.3555 21.1738C14.8828 20.8223 15.5566 20.6348 16.377 20.6113H16.4824C16.5527 20.5996 16.623 20.5938 16.6934 20.5938H23.3027C23.6309 20.5938 23.9062 20.7109 24.1289 20.9453C24.3633 21.168 24.4805 21.4434 24.4805 21.7715ZM27.9258 20.3125C28.2539 20.3125 28.5352 20.4238 28.7695 20.6465C29.0039 20.8574 29.127 21.127 29.1387 21.4551V25.6914C29.127 26.1719 29.1562 26.6172 29.2266 27.0273C29.3086 27.4258 29.4961 27.7832 29.7891 28.0996C30.082 28.416 30.4512 28.5859 30.8965 28.6094H36.5215C36.8496 28.6211 37.1191 28.7441 37.3301 28.9785C37.5527 29.2129 37.6641 29.4941 37.6641 29.8223C37.6523 30.1387 37.5352 30.4082 37.3125 30.6309C37.1016 30.8418 36.8379 30.9531 36.5215 30.9648H30.2988C29.4785 30.918 28.7988 30.6426 28.2598 30.1387C27.7324 29.623 27.3516 28.9961 27.1172 28.2578C26.8945 27.5195 26.7773 26.7344 26.7656 25.9023V21.4551C26.7773 21.1387 26.8945 20.875 27.1172 20.6641C27.3398 20.4414 27.6094 20.3242 27.9258 20.3125ZM42.6035 20.5938H43.4121H49.3887C49.7168 20.6055 49.9863 20.7285 50.1973 20.9629C50.4199 21.1973 50.5312 21.4785 50.5312 21.8066C50.4727 22.5098 50.0918 22.8906 49.3887 22.9492H43.2012C42.7559 22.9727 42.3867 23.1426 42.0938 23.459C41.8008 23.7754 41.584 24.1387 41.4434 24.5488C41.3145 24.9473 41.25 25.3574 41.25 25.7793C41.25 26.2012 41.3145 26.6172 41.4434 27.0273C41.584 27.4258 41.8008 27.7832 42.0938 28.0996C42.3867 28.416 42.7559 28.5859 43.2012 28.6094H49.3887C49.7168 28.6211 49.9863 28.7441 50.1973 28.9785C50.4199 29.2129 50.5312 29.4941 50.5312 29.8223C50.5195 30.1387 50.4023 30.4082 50.1797 30.6309C49.9688 30.8418 49.7051 30.9531 49.3887 30.9648H42.9375H42.6035C41.7832 30.918 41.1035 30.6074 40.5645 30.0332C40.0371 29.4473 39.6562 28.7852 39.4219 28.0469C39.1992 27.3086 39.0879 26.5527 39.0879 25.7793C39.0879 25.0059 39.2051 24.25 39.4395 23.5117C39.6738 22.7734 40.0547 22.1172 40.582 21.543C41.1094 20.957 41.7832 20.6406 42.6035 20.5938ZM50.4961 25.709C50.4961 26.0371 50.3789 26.3125 50.1445 26.5352C49.9219 26.7695 49.6465 26.8867 49.3184 26.8867H44.0098C43.6816 26.8867 43.4004 26.7754 43.166 26.5527C42.9434 26.3184 42.832 26.0371 42.832 25.709C42.832 25.3809 42.9434 25.0996 43.166 24.8652C43.4004 24.6426 43.6816 24.5312 44.0098 24.5312H49.3184C49.6465 24.5312 49.9219 24.6484 50.1445 24.8828C50.3789 25.1055 50.4961 25.3809 50.4961 25.709Z" fill="white"/>
<path d="M12 33.1094H51.1816V33.9531H12V33.1094Z" fill="white"/>
</svg>
