<svg width="27" height="28" viewBox="0 0 27 28" fill="none" xmlns="http://www.w3.org/2000/svg">
<rect x="1" y="1" width="25" height="26" rx="12.5" fill="#FF4D25"/>
<rect x="1" y="1" width="25" height="26" rx="12.5" stroke="#FF390E" stroke-width="2"/>
<path d="M8.57741 12.8189C8.54901 12.5324 8.42708 12.3099 8.21165 12.1513C7.99621 11.9927 7.70384 11.9134 7.33452 11.9134C7.08357 11.9134 6.87169 11.9489 6.69886 12.0199C6.52604 12.0885 6.39347 12.1844 6.30114 12.3075C6.21117 12.4306 6.16619 12.5703 6.16619 12.7266C6.16146 12.8568 6.18868 12.9704 6.24787 13.0675C6.30942 13.1645 6.39347 13.2486 6.5 13.3196C6.60653 13.3883 6.72964 13.4486 6.86932 13.5007C7.009 13.5504 7.15814 13.593 7.31676 13.6286L7.97017 13.7848C8.28741 13.8558 8.5786 13.9505 8.84375 14.0689C9.1089 14.1873 9.33854 14.3329 9.53267 14.5057C9.7268 14.6785 9.87713 14.8821 9.98366 15.1165C10.0926 15.3509 10.1482 15.6196 10.1506 15.9226C10.1482 16.3677 10.0346 16.7536 9.80966 17.0803C9.58712 17.4046 9.26515 17.6567 8.84375 17.8366C8.42472 18.0142 7.91927 18.103 7.32741 18.103C6.74029 18.103 6.22893 18.013 5.79332 17.8331C5.36009 17.6532 5.02154 17.3868 4.7777 17.0341C4.53622 16.679 4.40956 16.2398 4.39773 15.7166H5.88565C5.90223 15.9605 5.97206 16.1641 6.09517 16.3274C6.22064 16.4884 6.38755 16.6103 6.59588 16.6932C6.80658 16.7737 7.04451 16.8139 7.30966 16.8139C7.57008 16.8139 7.79616 16.776 7.98793 16.7003C8.18205 16.6245 8.33239 16.5192 8.43892 16.3842C8.54545 16.2493 8.59872 16.0942 8.59872 15.919C8.59872 15.7557 8.55019 15.6184 8.45312 15.5071C8.35843 15.3958 8.21875 15.3011 8.03409 15.223C7.8518 15.1449 7.62808 15.0739 7.36293 15.0099L6.57102 14.8111C5.95786 14.6619 5.47372 14.4287 5.11861 14.1115C4.76349 13.7943 4.58712 13.367 4.58949 12.8295C4.58712 12.3892 4.70431 12.0045 4.94105 11.6754C5.18016 11.3464 5.50805 11.0895 5.92472 10.9048C6.34138 10.7202 6.81487 10.6278 7.34517 10.6278C7.88494 10.6278 8.35606 10.7202 8.75852 10.9048C9.16335 11.0895 9.47822 11.3464 9.70312 11.6754C9.92803 12.0045 10.044 12.3857 10.0511 12.8189H8.57741ZM11.1848 18V10.7273H12.7225V16.7322H15.8404V18H11.1848ZM16.8587 18V10.7273H21.7592V11.995H18.3963V13.728H21.5071V14.9957H18.3963V16.7322H21.7734V18H16.8587Z" fill="white"/>
<path d="M4 19.9886H22.3523V20.6705H4V19.9886Z" fill="white"/>
</svg>
